Coordinates
version=1
nRows=41
nColumns=38
inDegrees=no

Units are S.I. units (second, meters, Newtons, ...)
If the header above contains a line with 'inDegrees', this indicates whether rotational values are in degrees (yes) or radians (no).

endheader
time	pelvis_tilt	pelvis_list	pelvis_rotation	pelvis_tx	pelvis_ty	pelvis_tz	hip_flexion_r	hip_adduction_r	hip_rotation_r	knee_angle_r	ankle_angle_r	subtalar_angle_r	mtp_angle_r	hip_flexion_l	hip_adduction_l	hip_rotation_l	knee_angle_l	ankle_angle_l	subtalar_angle_l	mtp_angle_l	lumbar_extension	lumbar_bending	lumbar_rotation	arm_flex_r	arm_add_r	arm_rot_r	elbow_flex_r	pro_sup_r	wrist_flex_r	wrist_dev_r	arm_flex_l	arm_add_l	arm_rot_l	elbow_flex_l	pro_sup_l	wrist_flex_l	wrist_dev_l
0	2.25874	1.37326	-0.610748	0.989408	-0.584529	0.920507	0.454026	0.0502474	-0.409382	0.589797	0.0161481	0	0	-0.132456	-0.26271	0.00393622	1.06469	0.0784068	0	0	-0.334854	0.259276	0.00318199	0.455103	-0.545905	0.216794	1.1576	1.5708	0	0	0.221599	-0.387623	-0.002744	1.36819	0.888423	0	0
0.01	2.25872	1.37955	-0.610775	0.992214	-0.57281	0.920941	0.452867	0.0489471	-0.403731	0.599907	0.000636807	0	0	-0.100573	-0.252718	0.0287861	1.11525	0.0701356	0	0	-0.33748	0.252358	0.00620277	0.443696	-0.536562	0.185895	1.17049	1.5708	0	0	0.230472	-0.393039	0.00588888	1.36653	0.88447	0	0
0.02	2.27328	1.38486	-0.625724	0.994946	-0.560593	0.921997	0.446501	0.0494254	-0.395036	0.607805	-0.0083552	0	0	-0.0754206	-0.241874	0.0480449	1.15754	0.0811972	0	0	-0.341598	0.244388	0.00874038	0.433553	-0.525822	0.157316	1.17939	1.5708	0	0	0.236305	-0.396455	0.0104873	1.36638	0.879809	0	0
0.03	2.30373	1.38998	-0.657011	0.997551	-0.548262	0.923611	0.437481	0.0509739	-0.379842	0.616332	-0.00928238	0	0	-0.0553365	-0.229399	0.0624759	1.19163	0.104338	0	0	-0.347664	0.234588	0.0103036	0.425542	-0.514739	0.133264	1.18554	1.5708	0	0	0.239721	-0.397817	0.00985967	1.36792	0.876412	0	0
0.04	2.34892	1.39531	-0.703531	0.999991	-0.535913	0.925683	0.42783	0.0523162	-0.358015	0.627866	-0.000543608	0	0	-0.0387853	-0.214652	0.0731993	1.21693	0.129794	0	0	-0.35505	0.222806	0.0110276	0.418804	-0.5034	0.111436	1.1903	1.5708	0	0	0.241433	-0.39742	0.00487344	1.37014	0.873886	0	0
0.05	2.40294	1.39995	-0.758857	1.0022	-0.523625	0.928142	0.417352	0.0535518	-0.332568	0.64016	0.0119727	0	0	-0.0242536	-0.199263	0.0814235	1.23472	0.153635	0	0	-0.362939	0.210777	0.0106146	0.413892	-0.492708	0.0941232	1.19293	1.5708	0	0	0.241806	-0.396027	-0.00304845	1.37212	0.873811	0	0
0.06	2.45586	1.40475	-0.814003	1.00431	-0.511489	0.930834	0.40752	0.054811	-0.305013	0.652142	0.0245365	0	0	-0.00941908	-0.18413	0.0868063	1.24594	0.175285	0	0	-0.36984	0.198769	0.0107086	0.409373	-0.481709	0.0759701	1.19463	1.5708	0	0	0.241791	-0.393305	-0.0122806	1.37389	0.875521	0	0
0.07	2.50059	1.40859	-0.861271	1.00631	-0.499493	0.933768	0.396639	0.0567403	-0.280213	0.660787	0.0358921	0	0	0.00606639	-0.17135	0.0902193	1.25119	0.194033	0	0	-0.375913	0.189022	0.0114142	0.405521	-0.471074	0.0583816	1.19611	1.5708	0	0	0.241658	-0.39018	-0.0202475	1.37523	0.878691	0	0
0.08	2.53598	1.41272	-0.899634	1.00839	-0.487498	0.936897	0.385004	0.0582396	-0.260275	0.665567	0.046644	0	0	0.0228556	-0.160518	0.0918539	1.25041	0.208964	0	0	-0.378301	0.180287	0.00809071	0.380427	-0.492605	0.222536	1.25334	0.745941	0	0	0.237054	-0.387941	-0.0330565	1.37609	0.892888	0	0
0.09	2.56415	1.41331	-0.928771	1.0101	-0.475594	0.940263	0.368316	0.0590785	-0.252551	0.665449	0.0563662	0	0	0.0380405	-0.153453	0.0943696	1.24505	0.221837	0	0	-0.38317	0.175981	0.00911638	0.376863	-0.484273	0.207508	1.2508	0.752265	0	0	0.237908	-0.385454	-0.0361663	1.37435	0.89494	0	0
0.1	2.58925	1.41365	-0.954797	1.01181	-0.463742	0.943705	0.349479	0.0586818	-0.251602	0.661559	0.0657838	0	0	0.0531305	-0.147426	0.0957903	1.23482	0.233362	0	0	-0.387181	0.172048	0.0112014	0.372701	-0.476367	0.190833	1.24751	0.770828	0	0	0.239638	-0.383729	-0.0364941	1.37101	0.900002	0	0
0.11	2.61298	1.41412	-0.980647	1.01359	-0.451962	0.947132	0.329008	0.0581634	-0.252868	0.653929	0.0749653	0	0	0.0679056	-0.142153	0.0945494	1.2204	0.245628	0	0	-0.390513	0.167646	0.0148736	0.368714	-0.469846	0.17652	1.24348	0.785871	0	0	0.241807	-0.38302	-0.0337587	1.36772	0.902191	0	0
0.12	2.63905	1.41486	-1.01087	1.01549	-0.440262	0.950523	0.30739	0.0577638	-0.253414	0.64352	0.0834273	0	0	0.0817	-0.137388	0.0894407	1.20201	0.258083	0	0	-0.393705	0.161838	0.0202508	0.365084	-0.463961	0.164023	1.23892	0.796162	0	0	0.244163	-0.383204	-0.0292736	1.365	0.902411	0	0
0.13	2.66873	1.41592	-1.04694	1.01749	-0.428685	0.95387	0.285469	0.0569317	-0.253076	0.631743	0.0908268	0	0	0.0944447	-0.132833	0.0802624	1.1797	0.268774	0	0	-0.397145	0.154472	0.0268416	0.362255	-0.458573	0.153272	1.23488	0.803999	0	0	0.246122	-0.38395	-0.0248566	1.36322	0.902538	0	0
0.14	2.69728	1.41707	-1.08381	1.01954	-0.417254	0.957135	0.264141	0.0563044	-0.251083	0.619726	0.0969992	0	0	0.106645	-0.129169	0.0681203	1.15465	0.276907	0	0	-0.400634	0.146518	0.0345626	0.360164	-0.453616	0.143428	1.23169	0.810926	0	0	0.247348	-0.384685	-0.0215628	1.36237	0.902747	0	0
0.15	2.72261	1.41793	-1.11902	1.02159	-0.405965	0.960315	0.24349	0.0563515	-0.246686	0.607737	0.102375	0	0	0.118244	-0.126839	0.053675	1.12687	0.282728	0	0	-0.404361	0.138668	0.0432911	0.358757	-0.44903	0.134489	1.22845	0.818417	0	0	0.247913	-0.385082	-0.0195985	1.36214	0.902861	0	0
0.16	2.74387	1.41832	-1.15106	1.02355	-0.394777	0.963398	0.223323	0.0572097	-0.239621	0.596089	0.10663	0	0	0.129389	-0.12566	0.0379199	1.09723	0.286531	0	0	-0.40838	0.131574	0.0519551	0.358569	-0.444811	0.127476	1.22539	0.826289	0	0	0.247257	-0.384947	-0.0199845	1.36264	0.902473	0	0
0.17	2.76117	1.4183	-1.17898	1.02534	-0.383685	0.96636	0.203553	0.0582694	-0.23242	0.585062	0.110258	0	0	0.140384	-0.125144	0.0227048	1.06659	0.289621	0	0	-0.412397	0.125576	0.0597559	0.359325	-0.441139	0.122314	1.22331	0.834407	0	0	0.245779	-0.384361	-0.0220094	1.36312	0.901862	0	0
0.18	2.77297	1.41822	-1.20063	1.02696	-0.37269	0.96915	0.184367	0.059326	-0.226459	0.574001	0.11356	0	0	0.15205	-0.124988	0.00957556	1.03574	0.293243	0	0	-0.415644	0.120823	0.0665834	0.360287	-0.438033	0.118222	1.22209	0.842927	0	0	0.244098	-0.383653	-0.024511	1.36323	0.901546	0	0
0.19	2.7823	1.41789	-1.2185	1.02845	-0.361782	0.971816	0.164827	0.060149	-0.22218	0.562503	0.116881	0	0	0.163913	-0.125229	-0.00167696	1.00461	0.297387	0	0	-0.418645	0.116852	0.0723842	0.360484	-0.435596	0.114084	1.22168	0.853584	0	0	0.242772	-0.383396	-0.0261704	1.36316	0.901724	0	0
0.2	2.79076	1.41731	-1.23384	1.02978	-0.350914	0.974303	0.144782	0.0605201	-0.219914	0.550723	0.120731	0	0	0.17611	-0.12566	-0.011797	0.973198	0.300837	0	0	-0.421291	0.113524	0.0766634	0.360372	-0.432936	0.109766	1.22149	0.863432	0	0	0.241899	-0.383669	-0.0269732	1.36273	0.901165	0	0
0.21	2.79856	1.41703	-1.24693	1.03099	-0.340107	0.97651	0.125289	0.0602788	-0.219878	0.539478	0.124973	0	0	0.189294	-0.126095	-0.0211447	0.941855	0.303665	0	0	-0.422984	0.110596	0.0792985	0.360249	-0.429929	0.105764	1.22134	0.871253	0	0	0.24136	-0.384654	-0.0270496	1.36181	0.898491	0	0
0.22	2.80979	1.41682	-1.26257	1.0321	-0.329342	0.978466	0.106084	0.0592378	-0.220753	0.528726	0.129091	0	0	0.202467	-0.12624	-0.0310737	0.910186	0.305986	0	0	-0.424463	0.107205	0.081229	0.359663	-0.42668	0.101275	1.22184	0.877154	0	0	0.241258	-0.386464	-0.0264689	1.36061	0.896566	0	0
0.23	2.82331	1.41385	-1.28002	1.03298	-0.318761	0.980252	0.0844672	0.0584333	-0.222055	0.518317	0.13352	0	0	0.212665	-0.126589	-0.0412443	0.87819	0.308097	0	0	-0.430757	0.105117	0.0881712	0.384242	-0.398398	-0.0635937	1.18321	1.5708	0	0	0.246959	-0.387244	-0.0191235	1.35818	0.892459	0	0
0.24	2.84188	1.41387	-1.30276	1.03402	-0.308084	0.981699	0.0666917	0.0561976	-0.221724	0.509589	0.138791	0	0	0.224732	-0.124653	-0.0512741	0.844406	0.309862	0	0	-0.431889	0.100156	0.089317	0.38381	-0.394573	-0.0685347	1.18525	1.5708	0	0	0.24714	-0.389898	-0.0178776	1.35774	0.891418	0	0
0.25	2.86294	1.41348	-1.32869	1.03505	-0.297399	0.982925	0.0494548	0.0536682	-0.219768	0.502589	0.144421	0	0	0.235194	-0.122161	-0.0623413	0.808785	0.311275	0	0	-0.433196	0.094563	0.0905649	0.383807	-0.391057	-0.0716017	1.18762	1.5708	0	0	0.247021	-0.39291	-0.0163899	1.35774	0.888497	0	0
0.26	2.88267	1.41271	-1.35397	1.03605	-0.286676	0.983933	0.0327117	0.0512725	-0.216446	0.49718	0.150237	0	0	0.244332	-0.119624	-0.073842	0.771806	0.311851	0	0	-0.434399	0.0889671	0.0924525	0.383976	-0.387729	-0.0740188	1.1899	1.5708	0	0	0.246921	-0.395924	-0.014195	1.35738	0.882664	0	0
0.27	2.89754	1.41204	-1.37488	1.03698	-0.275897	0.984697	0.0169423	0.0492732	-0.212486	0.493255	0.156259	0	0	0.253053	-0.117432	-0.0853488	0.734	0.311404	0	0	-0.43488	0.0840368	0.095019	0.384283	-0.384936	-0.0757103	1.19113	1.5708	0	0	0.246763	-0.39794	-0.0126964	1.3563	0.877403	0	0
0.28	2.9087	1.41132	-1.39221	1.03779	-0.265042	0.985275	0.00154559	0.047478	-0.208553	0.489879	0.162711	0	0	0.260982	-0.11536	-0.0970345	0.694814	0.309943	0	0	-0.434999	0.0798364	0.097693	0.385002	-0.382575	-0.0769476	1.19074	1.5708	0	0	0.246165	-0.399112	-0.0122031	1.35509	0.873347	0	0
0.29	2.91626	1.41048	-1.40586	1.03848	-0.254077	0.985672	-0.014028	0.0458932	-0.204969	0.486413	0.169349	0	0	0.267935	-0.113277	-0.108481	0.654183	0.307281	0	0	-0.434764	0.0764444	0.100194	0.386164	-0.380585	-0.0774571	1.18918	1.5708	0	0	0.244872	-0.399532	-0.0128542	1.35403	0.869385	0	0
0.3	2.92098	1.40946	-1.41697	1.03914	-0.243045	0.985879	-0.0298039	0.0446688	-0.200602	0.483023	0.176158	0	0	0.273707	-0.111366	-0.12052	0.612089	0.304721	0	0	-0.434386	0.0734024	0.102724	0.387698	-0.378898	-0.0766314	1.18715	1.5708	0	0	0.242894	-0.399531	-0.0145661	1.3532	0.8652	0	0
0.31	2.92656	1.40855	-1.42891	1.03972	-0.231952	0.985865	-0.0457542	0.043116	-0.195971	0.479272	0.183873	0	0	0.278377	-0.108835	-0.132889	0.568374	0.303093	0	0	-0.433945	0.0700506	0.105576	0.388767	-0.377822	-0.0756881	1.18575	1.5708	0	0	0.241305	-0.399046	-0.0164162	1.35216	0.860895	0	0
0.32	2.95584	1.40939	-1.4643	1.04048	-0.220842	0.985865	-0.0604048	0.0372274	-0.191438	0.475207	0.192295	0	0	0.276557	-0.0962794	-0.1298	0.507927	0.294997	0	0	-0.430597	0.0611433	0.10171	0.365924	-0.398876	0.077646	1.21781	0.943746	0	0	0.234914	-0.401113	-0.0246427	1.35348	0.855849	0	0
0.33	2.96467	1.40923	-1.47955	1.04097	-0.209597	0.985223	-0.0756081	0.0347355	-0.186573	0.471532	0.201541	0	0	0.279824	-0.0924906	-0.142279	0.461668	0.292743	0	0	-0.429119	0.0569591	0.104767	0.367112	-0.398272	0.0792209	1.21628	0.942328	0	0	0.2334	-0.40044	-0.0271769	1.35315	0.855261	0	0
0.34	2.97374	1.40906	-1.49474	1.04138	-0.198223	0.984261	-0.0903985	0.032022	-0.18217	0.469204	0.211372	0	0	0.282406	-0.0882793	-0.154885	0.415113	0.289821	0	0	-0.427519	0.0529458	0.107311	0.368739	-0.397521	0.0815735	1.21345	0.94258	0	0	0.231621	-0.399638	-0.0299671	1.35279	0.85523	0	0
0.35	2.97939	1.40897	-1.5063	1.04168	-0.186747	0.983011	-0.104438	0.0295832	-0.178178	0.468336	0.221504	0	0	0.284334	-0.0840794	-0.16717	0.367669	0.285933	0	0	-0.425734	0.0497616	0.109778	0.370309	-0.397351	0.0843888	1.21078	0.943531	0	0	0.229536	-0.398122	-0.0333074	1.35227	0.855808	0	0
0.36	2.97665	1.40931	-1.50889	1.04182	-0.175163	0.981494	-0.117324	0.0282482	-0.17483	0.468938	0.231766	0	0	0.286373	-0.0806515	-0.178174	0.320689	0.281332	0	0	-0.423537	0.0484345	0.112072	0.371674	-0.397926	0.0875286	1.20864	0.943126	0	0	0.226977	-0.395968	-0.0368253	1.35179	0.856952	0	0
0.37	2.96327	1.40967	-1.50019	1.04179	-0.163429	0.979794	-0.130038	0.0284803	-0.171811	0.469904	0.241553	0	0	0.287877	-0.0783528	-0.187357	0.2741	0.276404	0	0	-0.421448	0.0492177	0.11497	0.372427	-0.399505	0.0903287	1.20726	0.940498	0	0	0.224621	-0.39287	-0.0400716	1.3512	0.85914	0	0
0.38	2.93993	1.40981	-1.48094	1.04163	-0.151545	0.977953	-0.143167	0.030247	-0.168982	0.470526	0.250772	0	0	0.288163	-0.0770791	-0.194398	0.227107	0.270737	0	0	-0.419369	0.0520342	0.117415	0.373524	-0.401821	0.0946762	1.20603	0.937274	0	0	0.221373	-0.389506	-0.0442448	1.35123	0.861234	0	0
0.39	2.90907	1.40967	-1.45328	1.04132	-0.139505	0.975983	-0.15677	0.0330552	-0.166871	0.47083	0.259248	0	0	0.287459	-0.0765572	-0.200163	0.18065	0.264988	0	0	-0.417279	0.0564943	0.11931	0.375294	-0.404393	0.099732	1.20395	0.935243	0	0	0.217854	-0.386314	-0.0480867	1.35139	0.861617	0	0
0.4	2.87418	1.40933	-1.42074	1.04089	-0.127299	0.973869	-0.170738	0.0363507	-0.16524	0.470844	0.267367	0	0	0.285004	-0.0758097	-0.202853	0.133317	0.258843	0	0	-0.415139	0.0618749	0.120387	0.377823	-0.406727	0.104801	1.20032	0.937332	0	0	0.214515	-0.38367	-0.0511453	1.35106	0.858611	0	0
